<svg width="61" height="65" viewBox="0 0 61 65" fill="none" xmlns="http://www.w3.org/2000/svg">
<path d="M49.2413 4.70901C48.2122 18.8343 42.6042 21.6067 39.0647 25.0716C39.3063 18.6994 34.0242 6.74994 31.353 1.57176C27.2398 9.07351 29.6415 17.0373 31.3565 20.0815C26.6701 13.1275 12.2579 8.33692 5.63761 6.81084C9.60851 17.1998 17.6314 22.6784 21.1465 24.1191C14.0701 22.7367 4.7256 24.901 0.937914 26.1559C6.44961 32.9155 17.0824 34.6037 21.7098 34.6028C10.8596 38.4645 5.10957 50.0357 3.93236 56.2109C6.40831 55.6278 10.1297 53.722 9.95779 53.7625C13.4023 52.1727 16.1269 50.7995 18.7017 49.788C26.1207 46.8734 26.9763 44.2511 31.5729 41.8076C26.064 49.8558 30.6556 58.7194 33.1247 64.5804C39.4836 58.2919 40.6062 47.0301 40.3727 42.1853C43.9795 52.8778 55.0768 55.6906 60.1746 55.7605C56.8226 45.2257 47.9422 35.4121 43.921 31.8222C50.5242 33.9693 57.4647 33.079 60.1095 32.3654C58.1667 27.8142 46.2413 26.6482 40.5215 26.634C43.8286 24.4942 45.2546 23.614 48.2122 18.8343C50.661 14.8769 51.8515 8.08681 51.8204 4.10166C50.8134 0.981489 49.7703 -2.55273 49.2413 4.70901Z" fill="black"/>
</svg>
