<svg width="113" height="122" viewBox="0 0 113 122" fill="none" xmlns="http://www.w3.org/2000/svg">
<path d="M92.1292 8.43439C90.1873 35.0892 79.6048 40.3209 72.9257 46.8593C73.3815 34.8347 63.4141 12.2857 58.3734 2.51427C50.6116 16.6703 55.1437 31.6983 58.3799 37.4428C49.5366 24.3205 22.3403 15.2804 9.84755 12.4006C17.3408 32.005 32.4803 42.3433 39.1134 45.0619C25.7599 42.4533 8.12656 46.5373 0.979063 48.9054C11.3798 61.661 31.4443 64.8466 40.1764 64.845C19.7016 72.1322 8.85112 93.9674 6.6297 105.62C11.3019 104.52 18.3243 100.924 17.9999 101C24.4999 98 29.6412 95.4088 34.4999 93.5C48.4999 88 50.1143 83.0518 58.7884 78.4407C48.3928 93.628 57.0574 110.354 61.7166 121.414C73.716 109.547 75.8345 88.2958 75.3938 79.1534C82.2001 99.3305 103.141 104.638 112.761 104.77C106.435 84.8908 89.6778 66.3723 82.0896 59.5979C94.5501 63.6496 107.647 61.9695 112.638 60.6229C108.972 52.0346 86.4682 49.8343 75.6747 49.8077C81.9153 45.7697 84.6062 44.1087 90.1873 35.0892C94.8083 27.6215 97.0547 14.8084 96.9961 7.28829C95.0959 1.40043 93.1275 -5.26877 92.1292 8.43439Z" fill="#F17233"/>
</svg>
